<svg width="392" height="79" viewBox="0 0 392 79" fill="none" xmlns="http://www.w3.org/2000/svg">
<path d="M17.68 34.472H8.32C8.32 32.552 8.848 31.184 9.904 30.368C10.96 29.504 12.112 29.072 13.36 29.072H17.68C17.68 27.2 17.824 25.28 18.112 23.312C18.4 21.344 18.904 19.448 19.624 17.624C20.344 15.8 21.304 14.072 22.504 12.44C23.704 10.76 25.216 9.32 27.04 8.12C28.864 6.92 31.024 5.96 33.52 5.24C36.016 4.52 38.92 4.16 42.232 4.16C43.048 4.16 43.792 4.448 44.464 5.024C45.184 5.552 45.544 6.704 45.544 8.48V9.92H41.8C39.016 9.92 36.64 10.256 34.672 10.928C32.752 11.552 31.144 12.416 29.848 13.52C28.552 14.576 27.52 15.776 26.752 17.12C25.984 18.464 25.408 19.856 25.024 21.296C24.64 22.688 24.4 24.08 24.304 25.472C24.208 26.816 24.16 28.016 24.16 29.072H58.504C58.504 30.128 58.36 31.016 58.072 31.736C57.784 32.408 57.4 32.96 56.92 33.392C56.44 33.776 55.888 34.064 55.264 34.256C54.688 34.4 54.088 34.472 53.464 34.472H24.16V56C24.16 60.08 23.8 63.536 23.08 66.368C22.36 69.2 21.208 71.504 19.624 73.28C18.088 75.056 16.096 76.328 13.648 77.096C11.248 77.912 8.344 78.32 4.936 78.32C3.4 78.32 2.344 77.936 1.768 77.168C1.192 76.4 0.904 75.128 0.904 73.352V72.56H4.936C7.096 72.56 8.968 72.392 10.552 72.056C12.184 71.768 13.504 71.048 14.512 69.896C15.568 68.744 16.36 67.064 16.888 64.856C17.416 62.648 17.68 59.648 17.68 55.856V34.472ZM63.535 50.6C64.687 50.6 65.959 50.36 67.351 49.88C68.791 49.352 70.231 48.584 71.671 47.576C73.159 46.52 74.599 45.224 75.991 43.688C77.431 42.104 78.679 40.256 79.735 38.144C80.839 35.984 81.727 33.536 82.399 30.8C83.071 28.064 83.407 25.016 83.407 21.656V17.12H85.999C89.599 17.12 91.399 19.304 91.399 23.672C91.399 24.968 91.255 26.216 90.967 27.416C90.679 28.616 90.319 29.768 89.887 30.872V50.96H112.999C112.999 52.016 112.855 52.88 112.567 53.552C112.279 54.176 111.895 54.68 111.415 55.064C110.935 55.4 110.383 55.64 109.759 55.784C109.183 55.928 108.583 56 107.959 56H87.799C87.271 56 86.743 55.952 86.215 55.856C85.687 55.712 85.207 55.496 84.775 55.208C84.391 54.872 84.055 54.44 83.767 53.912C83.527 53.336 83.407 52.592 83.407 51.68V41.744C82.111 44 80.671 46.04 79.087 47.864C77.503 49.64 75.847 51.152 74.119 52.4C72.391 53.648 70.615 54.632 68.791 55.352C67.015 56.024 65.263 56.36 63.535 56.36C62.287 56.36 61.231 56.192 60.367 55.856C59.551 55.52 58.879 55.064 58.351 54.488C57.871 53.912 57.535 53.24 57.343 52.472C57.151 51.656 57.055 50.792 57.055 49.88V32.168C57.055 29.48 57.343 27.152 57.919 25.184C58.495 23.168 59.431 21.512 60.727 20.216C62.023 18.92 63.703 17.96 65.767 17.336C67.879 16.712 70.423 16.4 73.399 16.4C75.463 16.4 77.047 16.784 78.151 17.552C79.255 18.32 79.807 19.616 79.807 21.44V22.16H73.399C71.671 22.16 70.183 22.304 68.935 22.592C67.735 22.832 66.727 23.336 65.911 24.104C65.095 24.824 64.495 25.832 64.111 27.128C63.727 28.424 63.535 30.104 63.535 32.168V50.6ZM117.416 56C115.4 56 113.912 55.496 112.952 54.488C112.04 53.432 111.584 51.752 111.584 49.448C111.584 48.152 111.704 46.904 111.944 45.704C112.232 44.504 112.616 43.352 113.096 42.248V18.56C113.096 18.176 113.24 17.84 113.528 17.552C113.816 17.264 114.152 17.12 114.536 17.12H118.136C118.52 17.12 118.856 17.264 119.144 17.552C119.432 17.84 119.576 18.176 119.576 18.56V31.52C120.92 29.168 122.408 27.008 124.04 25.04C125.72 23.072 127.472 21.416 129.296 20.072C131.12 18.68 132.968 17.6 134.84 16.832C136.712 16.064 138.512 15.68 140.24 15.68C141.488 15.68 142.52 15.848 143.336 16.184C144.2 16.52 144.872 16.976 145.352 17.552C145.88 18.128 146.24 18.824 146.432 19.64C146.624 20.408 146.72 21.248 146.72 22.16V50.96H169.76C169.76 52.016 169.616 52.88 169.328 53.552C169.04 54.176 168.656 54.68 168.176 55.064C167.696 55.4 167.144 55.64 166.52 55.784C165.944 55.928 165.344 56 164.72 56H144.56C144.032 56 143.504 55.952 142.976 55.856C142.448 55.712 141.968 55.496 141.536 55.208C141.152 54.872 140.84 54.44 140.6 53.912C140.36 53.336 140.24 52.592 140.24 51.68V21.44C138.512 21.44 136.472 22.064 134.12 23.312C131.768 24.56 129.512 26.432 127.352 28.928C125.192 31.424 123.344 34.544 121.808 38.288C120.32 42.032 119.576 46.424 119.576 51.464V56H117.416ZM176.246 50.6C177.398 50.6 178.67 50.36 180.062 49.88C181.502 49.352 182.942 48.584 184.382 47.576C185.87 46.52 187.31 45.224 188.702 43.688C190.142 42.104 191.39 40.256 192.446 38.144C193.55 35.984 194.438 33.536 195.11 30.8C195.782 28.064 196.118 25.016 196.118 21.656V17.12H198.71C202.31 17.12 204.11 19.304 204.11 23.672C204.11 24.968 203.966 26.216 203.678 27.416C203.39 28.616 203.03 29.768 202.598 30.872V50.96H225.71C225.71 52.016 225.566 52.88 225.278 53.552C224.99 54.176 224.606 54.68 224.126 55.064C223.646 55.4 223.094 55.64 222.47 55.784C221.894 55.928 221.294 56 220.67 56H200.51C199.982 56 199.454 55.952 198.926 55.856C198.398 55.712 197.918 55.496 197.486 55.208C197.102 54.872 196.766 54.44 196.478 53.912C196.238 53.336 196.118 52.592 196.118 51.68V41.744C194.822 44 193.382 46.04 191.798 47.864C190.214 49.64 188.558 51.152 186.83 52.4C185.102 53.648 183.326 54.632 181.502 55.352C179.726 56.024 177.974 56.36 176.246 56.36C174.998 56.36 173.942 56.192 173.078 55.856C172.262 55.52 171.59 55.064 171.062 54.488C170.582 53.912 170.246 53.24 170.054 52.472C169.862 51.656 169.766 50.792 169.766 49.88V32.168C169.766 29.48 170.054 27.152 170.63 25.184C171.206 23.168 172.142 21.512 173.438 20.216C174.734 18.92 176.414 17.96 178.478 17.336C180.59 16.712 183.134 16.4 186.11 16.4C188.174 16.4 189.758 16.784 190.862 17.552C191.966 18.32 192.518 19.616 192.518 21.44V22.16H186.11C184.382 22.16 182.894 22.304 181.646 22.592C180.446 22.832 179.438 23.336 178.622 24.104C177.806 24.824 177.206 25.832 176.822 27.128C176.438 28.424 176.246 30.104 176.246 32.168V50.6ZM232.287 22.88V50.96H257.487C257.487 52.016 257.343 52.88 257.055 53.552C256.767 54.176 256.383 54.68 255.903 55.064C255.423 55.4 254.871 55.64 254.247 55.784C253.671 55.928 253.071 56 252.447 56H230.127C229.599 56 229.071 55.952 228.543 55.856C228.015 55.712 227.535 55.496 227.103 55.208C226.719 54.872 226.383 54.44 226.095 53.912C225.855 53.336 225.735 52.592 225.735 51.68V22.88H216.375C216.375 20.768 216.903 19.28 217.959 18.416C219.015 17.552 220.167 17.12 221.415 17.12H225.735V7.04C225.735 6.656 225.879 6.32 226.167 6.032C226.455 5.744 226.791 5.6 227.175 5.6H230.775C231.159 5.6 231.495 5.744 231.783 6.032C232.071 6.32 232.239 6.656 232.287 7.04V17.12H244.527C244.527 19.232 243.999 20.72 242.943 21.584C241.887 22.448 240.735 22.88 239.487 22.88H232.287ZM287.108 50.96C287.108 52.016 286.964 52.88 286.676 53.552C286.388 54.176 286.004 54.68 285.524 55.064C285.044 55.4 284.492 55.64 283.868 55.784C283.292 55.928 282.692 56 282.068 56H261.908C261.38 56 260.852 55.952 260.324 55.856C259.796 55.712 259.316 55.496 258.884 55.208C258.5 54.872 258.164 54.44 257.876 53.912C257.636 53.336 257.516 52.592 257.516 51.68V18.56C257.516 18.176 257.66 17.84 257.948 17.552C258.236 17.264 258.572 17.12 258.956 17.12H262.484C262.868 17.12 263.204 17.264 263.492 17.552C263.78 17.84 263.948 18.176 263.996 18.56V50.96H287.108ZM256.364 5.312C256.364 4.112 256.652 3.08 257.228 2.216C257.804 1.304 258.98 0.847998 260.756 0.847998C262.484 0.847998 263.66 1.304 264.284 2.216C264.908 3.08 265.22 4.112 265.22 5.312C265.22 6.56 264.908 7.616 264.284 8.48C263.66 9.296 262.484 9.704 260.756 9.704C258.98 9.704 257.804 9.296 257.228 8.48C256.652 7.616 256.364 6.56 256.364 5.312ZM291.438 56C289.422 56 287.934 55.496 286.974 54.488C286.062 53.432 285.606 51.752 285.606 49.448C285.606 48.152 285.726 46.904 285.966 45.704C286.254 44.504 286.638 43.352 287.118 42.248V2.72C287.118 2.336 287.262 2 287.55 1.712C287.838 1.424 288.174 1.28 288.558 1.28H292.158C292.542 1.28 292.878 1.424 293.166 1.712C293.454 2 293.598 2.336 293.598 2.72V29.936C294.798 27.776 296.166 25.808 297.702 24.032C299.238 22.256 300.822 20.768 302.454 19.568C304.134 18.32 305.838 17.36 307.566 16.688C309.342 16.016 311.07 15.68 312.75 15.68C313.998 15.68 315.03 15.848 315.846 16.184C316.71 16.52 317.382 16.976 317.862 17.552C318.39 18.128 318.75 18.824 318.942 19.64C319.134 20.408 319.23 21.248 319.23 22.16V23.528C319.23 29.336 318.462 33.704 316.926 36.632C315.39 39.56 312.822 41.456 309.222 42.32L314.694 50.96H335.358C335.358 52.016 335.214 52.88 334.926 53.552C334.638 54.176 334.254 54.68 333.774 55.064C333.294 55.4 332.742 55.64 332.118 55.784C331.542 55.928 330.942 56 330.318 56H313.47C312.798 56 312.126 55.928 311.453 55.784C310.781 55.592 310.254 55.184 309.87 54.56L302.886 42.968C300.822 42.968 299.358 42.704 298.494 42.176C297.63 41.648 297.198 40.472 297.198 38.648V37.928H302.886C304.614 37.928 306.078 37.736 307.278 37.352C308.526 36.968 309.558 36.248 310.374 35.192C311.19 34.136 311.79 32.672 312.174 30.8C312.558 28.928 312.75 26.504 312.75 23.528V21.44C311.022 21.44 309.054 22.016 306.846 23.168C304.638 24.272 302.55 26.024 300.582 28.424C298.614 30.776 296.958 33.776 295.614 37.424C294.27 41.024 293.598 45.344 293.598 50.384V56H291.438ZM341.832 50.6C342.984 50.6 344.256 50.36 345.648 49.88C347.088 49.352 348.528 48.584 349.968 47.576C351.456 46.52 352.896 45.224 354.288 43.688C355.728 42.104 356.976 40.256 358.032 38.144C359.136 35.984 360.024 33.536 360.696 30.8C361.368 28.064 361.704 25.016 361.704 21.656V17.12H364.296C367.896 17.12 369.696 19.304 369.696 23.672C369.696 24.968 369.552 26.216 369.264 27.416C368.976 28.616 368.616 29.768 368.184 30.872V50.96H391.296C391.296 52.016 391.152 52.88 390.864 53.552C390.576 54.176 390.192 54.68 389.712 55.064C389.232 55.4 388.68 55.64 388.056 55.784C387.48 55.928 386.88 56 386.256 56H366.096C365.568 56 365.04 55.952 364.512 55.856C363.984 55.712 363.504 55.496 363.072 55.208C362.688 54.872 362.352 54.44 362.064 53.912C361.824 53.336 361.704 52.592 361.704 51.68V41.744C360.408 44 358.968 46.04 357.384 47.864C355.8 49.64 354.144 51.152 352.416 52.4C350.688 53.648 348.912 54.632 347.088 55.352C345.312 56.024 343.56 56.36 341.832 56.36C340.584 56.36 339.528 56.192 338.664 55.856C337.848 55.52 337.176 55.064 336.648 54.488C336.168 53.912 335.832 53.24 335.64 52.472C335.448 51.656 335.352 50.792 335.352 49.88V32.168C335.352 29.48 335.64 27.152 336.216 25.184C336.792 23.168 337.728 21.512 339.024 20.216C340.32 18.92 342 17.96 344.064 17.336C346.176 16.712 348.72 16.4 351.696 16.4C353.76 16.4 355.344 16.784 356.448 17.552C357.552 18.32 358.104 19.616 358.104 21.44V22.16H351.696C349.968 22.16 348.48 22.304 347.232 22.592C346.032 22.832 345.024 23.336 344.208 24.104C343.392 24.824 342.792 25.832 342.408 27.128C342.024 28.424 341.832 30.104 341.832 32.168V50.6Z" fill="#4DCFA8" fill-opacity="0.88"/>
<path d="M17.68 34.472H18.68V33.472H17.68V34.472ZM8.32 34.472H7.32V35.472H8.32V34.472ZM9.904 30.368L10.5154 31.1593L10.5265 31.1508L10.5372 31.142L9.904 30.368ZM17.68 29.072V30.072H18.68V29.072H17.68ZM19.624 17.624L18.6938 17.2568L18.6938 17.2568L19.624 17.624ZM22.504 12.44L23.3097 13.0324L23.3177 13.0212L22.504 12.44ZM27.04 8.12L27.5896 8.95542L27.5896 8.95542L27.04 8.12ZM33.52 5.24L33.7972 6.20082L33.7972 6.20082L33.52 5.24ZM44.464 5.024L43.8132 5.78326L43.842 5.80796L43.8726 5.8304L44.464 5.024ZM45.544 9.92V10.92H46.544V9.92H45.544ZM34.672 10.928L34.9811 11.879L34.9881 11.8767L34.9951 11.8743L34.672 10.928ZM29.848 13.52L30.4797 14.2952L30.4881 14.2883L30.4965 14.2812L29.848 13.52ZM25.024 21.296L25.988 21.5619L25.9902 21.5537L25.024 21.296ZM24.304 25.472L25.3015 25.5432L25.3016 25.5408L24.304 25.472ZM24.16 29.072H23.16V30.072H24.16V29.072ZM58.504 29.072H59.504V28.072H58.504V29.072ZM58.072 31.736L58.9911 32.1299L58.996 32.1187L59.0005 32.1074L58.072 31.736ZM56.92 33.392L57.5447 34.1729L57.5674 34.1547L57.589 34.1353L56.92 33.392ZM55.264 34.256L55.5065 35.2261L55.5325 35.2196L55.5581 35.2118L55.264 34.256ZM24.16 34.472V33.472H23.16V34.472H24.16ZM23.08 66.368L24.0492 66.6144L24.0492 66.6144L23.08 66.368ZM19.624 73.28L18.8777 72.6144L18.8726 72.6201L18.8676 72.6258L19.624 73.28ZM13.648 77.096L13.3487 76.1419L13.3373 76.1454L13.3261 76.1492L13.648 77.096ZM1.768 77.168L2.568 76.568L2.568 76.568L1.768 77.168ZM0.904 72.56V71.56H-0.0960001V72.56H0.904ZM10.552 72.056L10.3782 71.0712L10.3613 71.0742L10.3445 71.0778L10.552 72.056ZM14.512 69.896L13.7748 69.2203L13.767 69.2288L13.7594 69.2375L14.512 69.896ZM16.888 64.856L15.9154 64.6234L15.9154 64.6234L16.888 64.856ZM17.68 33.472H8.32V35.472H17.68V33.472ZM9.32 34.472C9.32 32.7193 9.79865 31.7132 10.5154 31.1593L9.29255 29.5767C7.89735 30.6548 7.32 32.3847 7.32 34.472H9.32ZM10.5372 31.142C11.4324 30.4096 12.3649 30.072 13.36 30.072V28.072C11.8591 28.072 10.4876 28.5984 9.27076 29.594L10.5372 31.142ZM13.36 30.072H17.68V28.072H13.36V30.072ZM18.68 29.072C18.68 27.2514 18.82 25.3798 19.1015 23.4568L17.1225 23.1672C16.828 25.1802 16.68 27.1486 16.68 29.072H18.68ZM19.1015 23.4568C19.3785 21.5639 19.8628 19.7425 20.5542 17.9912L18.6938 17.2568C17.9452 19.1534 17.4215 21.1241 17.1225 23.1672L19.1015 23.4568ZM20.5542 17.9912C21.2415 16.2499 22.159 14.5973 23.3097 13.0324L21.6983 11.8476C20.449 13.5467 19.4465 15.3501 18.6938 17.2568L20.5542 17.9912ZM23.3177 13.0212C24.4421 11.4472 25.8626 10.0916 27.5896 8.95542L26.4904 7.28458C24.5694 8.54837 22.9659 10.0728 21.6903 11.8588L23.3177 13.0212ZM27.5896 8.95542C29.3155 7.82 31.38 6.89808 33.7972 6.20082L33.2428 4.27917C30.668 5.02191 28.4126 6.02 26.4904 7.28458L27.5896 8.95542ZM33.7972 6.20082C36.1823 5.5128 38.9894 5.16 42.232 5.16V3.16C38.8506 3.16 35.8497 3.5272 33.2428 4.27917L33.7972 6.20082ZM42.232 5.16C42.7884 5.16 43.3059 5.34843 43.8132 5.78326L45.1148 4.26474C44.2781 3.54757 43.3076 3.16 42.232 3.16V5.16ZM43.8726 5.8304C44.1692 6.04787 44.544 6.73473 44.544 8.48H46.544C46.544 6.67327 46.1988 5.05613 45.0554 4.21759L43.8726 5.8304ZM44.544 8.48V9.92H46.544V8.48H44.544ZM45.544 8.92H41.8V10.92H45.544V8.92ZM41.8 8.92C38.9409 8.92 36.4494 9.26438 34.3489 9.98165L34.9951 11.8743C36.8306 11.2476 39.0911 10.92 41.8 10.92V8.92ZM34.3629 9.97696C32.3412 10.634 30.6118 11.5557 29.1995 12.7588L30.4965 14.2812C31.6762 13.2763 33.1628 12.47 34.9811 11.879L34.3629 9.97696ZM29.2163 12.7448C27.8326 13.8722 26.7175 15.1648 25.8838 16.6239L27.6202 17.6161C28.3225 16.3872 29.2714 15.2798 30.4797 14.2952L29.2163 12.7448ZM25.8838 16.6239C25.0746 18.0399 24.4648 19.5118 24.0578 21.0383L25.9902 21.5537C26.3512 20.2002 26.8934 18.8881 27.6202 17.6161L25.8838 16.6239ZM24.06 21.0301C23.6589 22.4842 23.4071 23.9422 23.3064 25.4032L25.3016 25.5408C25.3929 24.2178 25.6211 22.8918 25.988 21.5619L24.06 21.0301ZM23.3065 25.4008C23.2093 26.7624 23.16 27.9868 23.16 29.072H25.16C25.16 28.0452 25.2067 26.8696 25.3015 25.5432L23.3065 25.4008ZM24.16 30.072H58.504V28.072H24.16V30.072ZM57.504 29.072C57.504 30.0439 57.3705 30.7971 57.1435 31.3646L59.0005 32.1074C59.3495 31.2349 59.504 30.2121 59.504 29.072H57.504ZM57.1529 31.3421C56.9144 31.8985 56.6099 32.3257 56.251 32.6487L57.589 34.1353C58.1901 33.5943 58.6536 32.9175 58.9911 32.1299L57.1529 31.3421ZM56.2953 32.6111C55.9195 32.9118 55.4812 33.1429 54.9699 33.3002L55.5581 35.2118C56.2948 34.9851 56.9605 34.6402 57.5447 34.1729L56.2953 32.6111ZM55.0215 33.2859C54.5287 33.409 54.0104 33.472 53.464 33.472V35.472C54.1656 35.472 54.8473 35.391 55.5065 35.2261L55.0215 33.2859ZM53.464 33.472H24.16V35.472H53.464V33.472ZM23.16 34.472V56H25.16V34.472H23.16ZM23.16 56C23.16 60.027 22.8041 63.3948 22.1108 66.1216L24.0492 66.6144C24.7959 63.6772 25.16 60.133 25.16 56H23.16ZM22.1108 66.1216C21.4215 68.8329 20.3332 70.9825 18.8777 72.6144L20.3703 73.9456C22.0828 72.0255 23.2985 69.5671 24.0492 66.6144L22.1108 66.1216ZM18.8676 72.6258C17.4643 74.2484 15.6364 75.4241 13.3487 76.1419L13.9473 78.0501C16.5556 77.2319 18.7117 75.8636 20.3804 73.9342L18.8676 72.6258ZM13.3261 76.1492C11.0586 76.9202 8.26974 77.32 4.936 77.32V79.32C8.41826 79.32 11.4374 78.9038 13.9699 78.0428L13.3261 76.1492ZM4.936 77.32C3.52423 77.32 2.86441 76.9632 2.568 76.568L0.968 77.768C1.82359 78.9088 3.27576 79.32 4.936 79.32V77.32ZM2.568 76.568C2.19284 76.0678 1.904 75.0714 1.904 73.352H-0.0960001C-0.0960001 75.1847 0.191164 76.7322 0.968 77.768L2.568 76.568ZM1.904 73.352V72.56H-0.0960001V73.352H1.904ZM0.904 73.56H4.936V71.56H0.904V73.56ZM4.936 73.56C7.14418 73.56 9.08901 73.3886 10.7595 73.0342L10.3445 71.0778C8.84699 71.3954 7.04782 71.56 4.936 71.56V73.56ZM10.7258 73.0408C12.5624 72.7167 14.0937 71.8926 15.2646 70.5545L13.7594 69.2375C12.9143 70.2034 11.8056 70.8193 10.3782 71.0712L10.7258 73.0408ZM15.2492 70.5717C16.4604 69.2504 17.3098 67.392 17.8606 65.0886L15.9154 64.6234C15.4102 66.736 14.6756 68.2376 13.7748 69.2203L15.2492 70.5717ZM17.8606 65.0886C18.4149 62.7706 18.68 59.6816 18.68 55.856H16.68C16.68 59.6144 16.4171 62.5254 15.9154 64.6234L17.8606 65.0886ZM18.68 55.856V34.472H16.68V55.856H18.68ZM63.535 50.6H62.535V51.6H63.535V50.6ZM67.351 49.88L67.677 50.8254L67.6862 50.8222L67.6953 50.8189L67.351 49.88ZM71.671 47.576L72.2445 48.3952L72.2497 48.3915L71.671 47.576ZM75.991 43.688L75.2511 43.0153L75.25 43.0165L75.991 43.688ZM79.735 38.144L78.8445 37.6889L78.8406 37.6968L79.735 38.144ZM82.399 30.8L83.3701 31.0385L83.3701 31.0385L82.399 30.8ZM83.407 17.12V16.12H82.407V17.12H83.407ZM90.967 27.416L89.9946 27.1826L89.9946 27.1826L90.967 27.416ZM89.887 30.872L88.9558 30.5076L88.887 30.6833V30.872H89.887ZM89.887 50.96H88.887V51.96H89.887V50.96ZM112.999 50.96H113.999V49.96H112.999V50.96ZM112.567 53.552L113.475 53.9711L113.481 53.9586L113.486 53.9459L112.567 53.552ZM111.415 55.064L111.988 55.8832L112.015 55.8649L112.04 55.8449L111.415 55.064ZM109.759 55.784L109.534 54.8096L109.525 54.8117L109.516 54.8139L109.759 55.784ZM86.215 55.856L85.9519 56.8208L85.9936 56.8321L86.0361 56.8399L86.215 55.856ZM84.775 55.208L84.1165 55.9606L84.1658 56.0037L84.2203 56.0401L84.775 55.208ZM83.767 53.912L82.8439 54.2966L82.8641 54.3449L82.8891 54.3909L83.767 53.912ZM83.407 41.744H84.407V37.9957L82.5399 41.2459L83.407 41.744ZM79.087 47.864L79.8334 48.5297L79.842 48.5197L79.087 47.864ZM74.119 52.4L73.5335 51.5893L73.5335 51.5893L74.119 52.4ZM68.791 55.352L69.1449 56.2873L69.1515 56.2848L69.1582 56.2822L68.791 55.352ZM60.367 55.856L59.9863 56.7807L59.9954 56.7844L60.0046 56.788L60.367 55.856ZM58.351 54.488L57.5828 55.1282L57.5979 55.1463L57.6138 55.1637L58.351 54.488ZM57.343 52.472L56.3695 52.7011L56.3729 52.7145L57.343 52.472ZM57.919 25.184L58.8788 25.4649L58.8805 25.4587L57.919 25.184ZM60.727 20.216L61.4341 20.9231L61.4341 20.9231L60.727 20.216ZM65.767 17.336L65.4836 16.377L65.4776 16.3788L65.767 17.336ZM78.151 17.552L78.7221 16.7311L78.7221 16.7311L78.151 17.552ZM79.807 22.16V23.16H80.807V22.16H79.807ZM68.935 22.592L69.1311 23.5726L69.1455 23.5697L69.1599 23.5664L68.935 22.592ZM65.911 24.104L66.5726 24.8538L66.5847 24.8432L66.5964 24.8322L65.911 24.104ZM64.111 27.128L65.0698 27.4121L65.0698 27.4121L64.111 27.128ZM63.535 51.6C64.8239 51.6 66.2079 51.332 67.677 50.8254L67.025 48.9346C65.7102 49.388 64.5501 49.6 63.535 49.6V51.6ZM67.6953 50.8189C69.2273 50.2571 70.7437 49.4458 72.2445 48.3952L71.0975 46.7568C69.7183 47.7222 68.3547 48.4469 67.0067 48.9411L67.6953 50.8189ZM72.2497 48.3915C73.8042 47.2883 75.2977 45.9421 76.732 44.3595L75.25 43.0165C73.9003 44.5059 72.5138 45.7517 71.0923 46.7605L72.2497 48.3915ZM76.7309 44.3607C78.2385 42.7024 79.5367 40.7767 80.6294 38.5912L78.8406 37.6968C77.8213 39.7353 76.6235 41.5056 75.2511 43.0153L76.7309 44.3607ZM80.6254 38.5991C81.7697 36.3603 82.6826 33.8378 83.3701 31.0385L81.4279 30.5615C80.7714 33.2341 79.9083 35.6077 78.8446 37.6889L80.6254 38.5991ZM83.3701 31.0385C84.0646 28.2112 84.407 25.0815 84.407 21.656H82.407C82.407 24.9505 82.0774 27.9168 81.4279 30.5615L83.3701 31.0385ZM84.407 21.656V17.12H82.407V21.656H84.407ZM83.407 18.12H85.999V16.12H83.407V18.12ZM85.999 18.12C87.5884 18.12 88.617 18.5928 89.2773 19.394C89.9682 20.2322 90.399 21.6002 90.399 23.672H92.399C92.399 21.3758 91.9298 19.4678 90.8207 18.122C89.681 16.7392 88.0096 16.12 85.999 16.12V18.12ZM90.399 23.672C90.399 24.8933 90.2634 26.0628 89.9946 27.1826L91.9394 27.6494C92.2466 26.3692 92.399 25.0427 92.399 23.672H90.399ZM89.9946 27.1826C89.7169 28.3399 89.3704 29.448 88.9558 30.5076L90.8182 31.2364C91.2676 30.088 91.6411 28.8921 91.9394 27.6494L89.9946 27.1826ZM88.887 30.872V50.96H90.887V30.872H88.887ZM89.887 51.96H112.999V49.96H89.887V51.96ZM111.999 50.96C111.999 51.9359 111.864 52.653 111.648 53.1581L113.486 53.9459C113.846 53.107 113.999 52.0961 113.999 50.96H111.999ZM111.659 53.1329C111.428 53.6328 111.135 54.0071 110.79 54.2831L112.04 55.8449C112.655 55.3529 113.13 54.7192 113.475 53.9711L111.659 53.1329ZM110.842 54.2448C110.476 54.5006 110.045 54.6918 109.534 54.8096L109.984 56.7584C110.721 56.5882 111.394 56.2994 111.988 55.8832L110.842 54.2448ZM109.516 54.8139C109.024 54.937 108.505 55 107.959 55V57C108.661 57 109.342 56.919 110.002 56.7541L109.516 54.8139ZM107.959 55H87.799V57H107.959V55ZM87.799 55C87.332 55 86.8638 54.9576 86.3939 54.8721L86.0361 56.8399C86.6222 56.9464 87.21 57 87.799 57V55ZM86.4781 54.8912C86.0482 54.774 85.6675 54.6012 85.3297 54.3759L84.2203 56.0401C84.7465 56.3908 85.3258 56.65 85.9519 56.8208L86.4781 54.8912ZM85.4335 54.4554C85.1525 54.2095 84.8863 53.8758 84.6449 53.4331L82.8891 54.3909C83.2237 55.0042 83.6295 55.5345 84.1165 55.9606L85.4335 54.4554ZM84.6901 53.5274C84.5186 53.1159 84.407 52.5157 84.407 51.68H82.407C82.407 52.6683 82.5354 53.5561 82.8439 54.2966L84.6901 53.5274ZM84.407 51.68V41.744H82.407V51.68H84.407ZM82.5399 41.2459C81.2736 43.4501 79.8705 45.4367 78.332 47.2083L79.842 48.5197C81.4715 46.6433 82.9484 44.5499 84.2741 42.2421L82.5399 41.2459ZM78.3407 47.1984C76.7994 48.9265 75.1965 50.3883 73.5335 51.5893L74.7045 53.2107C76.4975 51.9157 78.2066 50.3535 79.8333 48.5296L78.3407 47.1984ZM73.5335 51.5893C71.8672 52.7928 70.164 53.7349 68.4238 54.4218L69.1582 56.2822C71.066 55.5291 72.9148 54.5032 74.7045 53.2107L73.5335 51.5893ZM68.4371 54.4167C66.763 55.0502 65.1307 55.36 63.535 55.36V57.36C65.3953 57.36 67.267 56.9978 69.1449 56.2873L68.4371 54.4167ZM63.535 55.36C62.3707 55.36 61.4455 55.2025 60.7294 54.924L60.0046 56.788C61.0165 57.1815 62.2033 57.36 63.535 57.36V55.36ZM60.7478 54.9313C60.0498 54.6439 59.5049 54.2669 59.0882 53.8123L57.6138 55.1637C58.2531 55.8611 59.0522 56.3961 59.9863 56.7807L60.7478 54.9313ZM59.1192 53.8478C58.741 53.3939 58.4707 52.8598 58.3131 52.2295L56.3729 52.7145C56.5993 53.6202 57.001 54.4301 57.5828 55.1282L59.1192 53.8478ZM58.3164 52.243C58.1436 51.5083 58.055 50.7216 58.055 49.88H56.055C56.055 50.8624 56.1584 51.8037 56.3696 52.701L58.3164 52.243ZM58.055 49.88V32.168H56.055V49.88H58.055ZM58.055 32.168C58.055 29.5474 58.3362 27.3184 58.8787 25.4649L56.9593 24.9031C56.3498 26.9856 56.055 29.4126 56.055 32.168H58.055ZM58.8805 25.4587C59.4166 23.5823 60.2747 22.0826 61.4341 20.9231L60.0199 19.5089C58.5874 20.9414 57.5734 22.7537 56.9575 24.9093L58.8805 25.4587ZM61.4341 20.9231C62.5946 19.7626 64.1222 18.8779 66.0564 18.2932L65.4776 16.3788C63.2838 17.042 61.4514 18.0774 60.0199 19.5089L61.4341 20.9231ZM66.0503 18.295C68.0445 17.7058 70.4876 17.4 73.399 17.4V15.4C70.3584 15.4 67.7135 15.7182 65.4837 16.377L66.0503 18.295ZM73.399 17.4C75.3608 17.4 76.7113 17.7686 77.5799 18.3729L78.7221 16.7311C77.3827 15.7994 75.5652 15.4 73.399 15.4V17.4ZM77.5799 18.3729C78.3253 18.8914 78.807 19.8159 78.807 21.44H80.807C80.807 19.4161 80.1847 17.7486 78.7221 16.7311L77.5799 18.3729ZM78.807 21.44V22.16H80.807V21.44H78.807ZM79.807 21.16H73.399V23.16H79.807V21.16ZM73.399 21.16C71.6197 21.16 70.0524 21.3079 68.7101 21.6176L69.1599 23.5664C70.3136 23.3001 71.7223 23.16 73.399 23.16V21.16ZM68.7389 21.6114C67.3729 21.8846 66.1903 22.4678 65.2256 23.3758L66.5964 24.8322C67.2637 24.2042 68.0971 23.7794 69.1311 23.5726L68.7389 21.6114ZM65.2494 23.3542C64.262 24.2254 63.5767 25.4113 63.1522 26.8439L65.0698 27.4121C65.4133 26.2527 65.928 25.4226 66.5726 24.8538L65.2494 23.3542ZM63.1522 26.8439C62.7305 28.2671 62.535 30.0528 62.535 32.168H64.535C64.535 30.1552 64.7235 28.5809 65.0698 27.4121L63.1522 26.8439ZM62.535 32.168V50.6H64.535V32.168H62.535ZM112.952 54.488L112.195 55.1416L112.211 55.16L112.228 55.1777L112.952 54.488ZM111.944 45.704L110.971 45.4706L110.967 45.4892L110.963 45.5079L111.944 45.704ZM113.096 42.248L114.013 42.6467L114.096 42.456V42.248H113.096ZM113.528 17.552L112.821 16.8449L112.821 16.8449L113.528 17.552ZM119.144 17.552L119.851 16.8449L119.851 16.8449L119.144 17.552ZM119.576 31.52H118.576V35.2856L120.444 32.0161L119.576 31.52ZM124.04 25.04L123.279 24.3907L123.275 24.3962L123.27 24.4017L124.04 25.04ZM129.296 20.072L129.889 20.8771L129.896 20.8721L129.902 20.867L129.296 20.072ZM134.84 16.832L134.46 15.9068L134.46 15.9068L134.84 16.832ZM143.336 16.184L142.955 17.1087L142.964 17.1124L142.973 17.116L143.336 16.184ZM145.352 17.552L144.584 18.1922L144.599 18.2103L144.615 18.2277L145.352 17.552ZM146.432 19.64L145.458 19.8691L145.462 19.8825L146.432 19.64ZM146.72 50.96H145.72V51.96H146.72V50.96ZM169.76 50.96H170.76V49.96H169.76V50.96ZM169.328 53.552L170.236 53.9711L170.241 53.9586L170.247 53.9459L169.328 53.552ZM168.176 55.064L168.749 55.8832L168.775 55.8649L168.8 55.8449L168.176 55.064ZM166.52 55.784L166.295 54.8096L166.286 54.8117L166.277 54.8139L166.52 55.784ZM142.976 55.856L142.713 56.8208L142.754 56.8321L142.797 56.8399L142.976 55.856ZM141.536 55.208L140.877 55.9606L140.927 56.0037L140.981 56.0401L141.536 55.208ZM140.6 53.912L139.677 54.2966L139.683 54.3113L139.689 54.3258L140.6 53.912ZM140.24 21.44H141.24V20.44H140.24V21.44ZM127.352 28.928L128.108 29.5824L128.108 29.5824L127.352 28.928ZM121.808 38.288L120.883 37.9084L120.878 37.9187L121.808 38.288ZM119.576 56V57H120.576V56H119.576ZM117.416 55C115.55 55 114.376 54.5335 113.676 53.7983L112.228 55.1777C113.447 56.4585 115.25 57 117.416 57V55ZM113.709 53.8344C113.028 53.046 112.584 51.6573 112.584 49.448H110.584C110.584 51.8467 111.052 53.818 112.195 55.1416L113.709 53.8344ZM112.584 49.448C112.584 48.214 112.698 47.0319 112.924 45.9001L110.963 45.5079C110.71 46.7761 110.584 48.09 110.584 49.448H112.584ZM112.916 45.9374C113.191 44.7926 113.557 43.696 114.013 42.6467L112.179 41.8493C111.675 43.008 111.273 44.2154 110.971 45.4706L112.916 45.9374ZM114.096 42.248V18.56H112.096V42.248H114.096ZM114.096 18.56C114.096 18.4586 114.122 18.3722 114.235 18.2591L112.821 16.8449C112.358 17.3078 112.096 17.8934 112.096 18.56H114.096ZM114.235 18.2591C114.348 18.146 114.434 18.12 114.536 18.12V16.12C113.869 16.12 113.284 16.382 112.821 16.8449L114.235 18.2591ZM114.536 18.12H118.136V16.12H114.536V18.12ZM118.136 18.12C118.237 18.12 118.324 18.146 118.437 18.2591L119.851 16.8449C119.388 16.382 118.802 16.12 118.136 16.12V18.12ZM118.437 18.2591C118.55 18.3722 118.576 18.4586 118.576 18.56H120.576C120.576 17.8934 120.314 17.3078 119.851 16.8449L118.437 18.2591ZM118.576 18.56V31.52H120.576V18.56H118.576ZM120.444 32.0161C121.761 29.7113 123.216 27.5993 124.81 25.6783L123.27 24.4017C121.599 26.4167 120.078 28.6247 118.708 31.0239L120.444 32.0161ZM124.8 25.6893C126.438 23.7714 128.134 22.1698 129.889 20.8771L128.703 19.2669C126.809 20.6622 125.002 22.3726 123.279 24.3907L124.8 25.6893ZM129.902 20.867C131.666 19.5211 133.438 18.4878 135.219 17.7572L134.46 15.9068C132.497 16.7122 130.574 17.8389 128.689 19.277L129.902 20.867ZM135.219 17.7572C136.991 17.0303 138.662 16.68 140.24 16.68V14.68C138.361 14.68 136.432 15.0977 134.46 15.9068L135.219 17.7572ZM140.24 16.68C141.407 16.68 142.299 16.8385 142.955 17.1087L143.716 15.2593C142.741 14.8575 141.568 14.68 140.24 14.68V16.68ZM142.973 17.116C143.716 17.405 144.235 17.7736 144.584 18.1922L146.12 16.9118C145.509 16.1784 144.683 15.635 143.698 15.252L142.973 17.116ZM144.615 18.2277C145.019 18.6684 145.303 19.2072 145.458 19.869L147.405 19.411C147.177 18.4408 146.741 17.5876 146.089 16.8763L144.615 18.2277ZM145.462 19.8825C145.631 20.5603 145.72 21.3177 145.72 22.16H147.72C147.72 21.1783 147.616 20.2557 147.402 19.3975L145.462 19.8825ZM145.72 22.16V50.96H147.72V22.16H145.72ZM146.72 51.96H169.76V49.96H146.72V51.96ZM168.76 50.96C168.76 51.9359 168.625 52.653 168.409 53.1581L170.247 53.9459C170.606 53.107 170.76 52.0961 170.76 50.96H168.76ZM168.42 53.1329C168.189 53.6328 167.896 54.0071 167.551 54.2831L168.8 55.8449C169.415 55.3529 169.89 54.7192 170.236 53.9711L168.42 53.1329ZM167.602 54.2448C167.237 54.5006 166.805 54.6918 166.295 54.8096L166.745 56.7584C167.482 56.5882 168.155 56.2994 168.749 55.8832L167.602 54.2448ZM166.277 54.8139C165.784 54.937 165.266 55 164.72 55V57C165.421 57 166.103 56.919 166.762 56.7541L166.277 54.8139ZM164.72 55H144.56V57H164.72V55ZM144.56 55C144.093 55 143.625 54.9576 143.155 54.8721L142.797 56.8399C143.383 56.9464 143.971 57 144.56 57V55ZM143.239 54.8912C142.809 54.774 142.428 54.6012 142.09 54.3759L140.981 56.0401C141.507 56.3908 142.087 56.65 142.713 56.8208L143.239 54.8912ZM142.194 54.4554C141.931 54.2251 141.699 53.9143 141.51 53.4982L139.689 54.3258C139.98 54.9657 140.372 55.5189 140.877 55.9606L142.194 54.4554ZM141.523 53.5274C141.351 53.1159 141.24 52.5157 141.24 51.68H139.24C139.24 52.6683 139.368 53.5561 139.677 54.2966L141.523 53.5274ZM141.24 51.68V21.44H139.24V51.68H141.24ZM140.24 20.44C138.283 20.44 136.076 21.1417 133.651 22.4286L134.588 24.1953C136.867 22.9863 138.74 22.44 140.24 22.44V20.44ZM133.651 22.4286C131.167 23.7466 128.818 25.7058 126.596 28.2736L128.108 29.5824C130.206 27.1582 132.368 25.3734 134.588 24.1953L133.651 22.4286ZM126.596 28.2736C124.351 30.8676 122.451 34.0861 120.883 37.9084L122.733 38.6676C124.237 35.0019 126.033 31.9804 128.108 29.5824L126.596 28.2736ZM120.878 37.9187C119.334 41.8056 118.576 46.3281 118.576 51.464H120.576C120.576 46.5199 121.306 42.2584 122.737 38.6573L120.878 37.9187ZM118.576 51.464V56H120.576V51.464H118.576ZM119.576 55H117.416V57H119.576V55ZM176.246 50.6H175.246V51.6H176.246V50.6ZM180.062 49.88L180.388 50.8254L180.397 50.8222L180.406 50.8189L180.062 49.88ZM184.382 47.576L184.955 48.3952L184.961 48.3915L184.382 47.576ZM188.702 43.688L187.962 43.0153L187.961 43.0165L188.702 43.688ZM192.446 38.144L191.555 37.6889L191.552 37.6968L192.446 38.144ZM195.11 30.8L196.081 31.0385L196.081 31.0385L195.11 30.8ZM196.118 17.12V16.12H195.118V17.12H196.118ZM203.678 27.416L202.706 27.1826L202.706 27.1826L203.678 27.416ZM202.598 30.872L201.667 30.5076L201.598 30.6833V30.872H202.598ZM202.598 50.96H201.598V51.96H202.598V50.96ZM225.71 50.96H226.71V49.96H225.71V50.96ZM225.278 53.552L226.186 53.9711L226.192 53.9586L226.197 53.9459L225.278 53.552ZM224.126 55.064L224.699 55.8832L224.726 55.8649L224.751 55.8449L224.126 55.064ZM222.47 55.784L222.245 54.8096L222.236 54.8117L222.227 54.8139L222.47 55.784ZM198.926 55.856L198.663 56.8208L198.705 56.8321L198.747 56.8399L198.926 55.856ZM197.486 55.208L196.827 55.9606L196.877 56.0037L196.931 56.0401L197.486 55.208ZM196.478 53.912L195.555 54.2966L195.575 54.3449L195.6 54.3909L196.478 53.912ZM196.118 41.744H197.118V37.9957L195.251 41.2459L196.118 41.744ZM191.798 47.864L192.544 48.5297L192.553 48.5197L191.798 47.864ZM186.83 52.4L186.244 51.5893L186.244 51.5893L186.83 52.4ZM181.502 55.352L181.856 56.2873L181.862 56.2848L181.869 56.2822L181.502 55.352ZM173.078 55.856L172.697 56.7807L172.706 56.7844L172.715 56.788L173.078 55.856ZM171.062 54.488L170.294 55.1282L170.309 55.1463L170.325 55.1637L171.062 54.488ZM170.054 52.472L169.08 52.7011L169.084 52.7145L170.054 52.472ZM170.63 25.184L171.59 25.4649L171.591 25.4587L170.63 25.184ZM173.438 20.216L174.145 20.9231L174.145 20.9231L173.438 20.216ZM178.478 17.336L178.195 16.377L178.189 16.3788L178.478 17.336ZM190.862 17.552L191.433 16.7311L191.433 16.7311L190.862 17.552ZM192.518 22.16V23.16H193.518V22.16H192.518ZM181.646 22.592L181.842 23.5726L181.856 23.5697L181.871 23.5664L181.646 22.592ZM178.622 24.104L179.284 24.8538L179.296 24.8432L179.307 24.8322L178.622 24.104ZM176.822 27.128L177.781 27.4121L177.781 27.4121L176.822 27.128ZM176.246 51.6C177.535 51.6 178.919 51.332 180.388 50.8254L179.736 48.9346C178.421 49.388 177.261 49.6 176.246 49.6V51.6ZM180.406 50.8189C181.938 50.2571 183.455 49.4458 184.955 48.3952L183.808 46.7568C182.429 47.7222 181.066 48.4469 179.718 48.9411L180.406 50.8189ZM184.961 48.3915C186.515 47.2883 188.009 45.9421 189.443 44.3595L187.961 43.0165C186.611 44.5059 185.225 45.7517 183.803 46.7605L184.961 48.3915ZM189.442 44.3607C190.949 42.7024 192.248 40.7767 193.34 38.5912L191.552 37.6968C190.532 39.7353 189.334 41.5056 187.962 43.0153L189.442 44.3607ZM193.336 38.5991C194.481 36.3603 195.394 33.8378 196.081 31.0385L194.139 30.5615C193.482 33.2341 192.619 35.6077 191.556 37.6889L193.336 38.5991ZM196.081 31.0385C196.776 28.2112 197.118 25.0815 197.118 21.656H195.118C195.118 24.9505 194.788 27.9168 194.139 30.5615L196.081 31.0385ZM197.118 21.656V17.12H195.118V21.656H197.118ZM196.118 18.12H198.71V16.12H196.118V18.12ZM198.71 18.12C200.299 18.12 201.328 18.5928 201.988 19.394C202.679 20.2322 203.11 21.6002 203.11 23.672H205.11C205.11 21.3758 204.641 19.4678 203.532 18.122C202.392 16.7392 200.721 16.12 198.71 16.12V18.12ZM203.11 23.672C203.11 24.8933 202.974 26.0628 202.706 27.1826L204.65 27.6494C204.958 26.3692 205.11 25.0427 205.11 23.672H203.11ZM202.706 27.1826C202.428 28.3399 202.081 29.448 201.667 30.5076L203.529 31.2364C203.979 30.088 204.352 28.8921 204.65 27.6494L202.706 27.1826ZM201.598 30.872V50.96H203.598V30.872H201.598ZM202.598 51.96H225.71V49.96H202.598V51.96ZM224.71 50.96C224.71 51.9359 224.575 52.653 224.359 53.1581L226.197 53.9459C226.557 53.107 226.71 52.0961 226.71 50.96H224.71ZM224.37 53.1329C224.139 53.6328 223.846 54.0071 223.501 54.2831L224.751 55.8449C225.366 55.3529 225.841 54.7192 226.186 53.9711L224.37 53.1329ZM223.552 54.2448C223.187 54.5006 222.756 54.6918 222.245 54.8096L222.695 56.7584C223.432 56.5882 224.105 56.2994 224.699 55.8832L223.552 54.2448ZM222.227 54.8139C221.735 54.937 221.216 55 220.67 55V57C221.372 57 222.053 56.919 222.712 56.7541L222.227 54.8139ZM220.67 55H200.51V57H220.67V55ZM200.51 55C200.043 55 199.575 54.9576 199.105 54.8721L198.747 56.8399C199.333 56.9464 199.921 57 200.51 57V55ZM199.189 54.8912C198.759 54.774 198.378 54.6012 198.041 54.3759L196.931 56.0401C197.457 56.3908 198.037 56.65 198.663 56.8208L199.189 54.8912ZM198.144 54.4554C197.863 54.2095 197.597 53.8758 197.356 53.4331L195.6 54.3909C195.935 55.0042 196.34 55.5345 196.827 55.9606L198.144 54.4554ZM197.401 53.5274C197.23 53.1159 197.118 52.5157 197.118 51.68H195.118C195.118 52.6683 195.246 53.5561 195.555 54.2966L197.401 53.5274ZM197.118 51.68V41.744H195.118V51.68H197.118ZM195.251 41.2459C193.985 43.4501 192.581 45.4367 191.043 47.2083L192.553 48.5197C194.182 46.6433 195.659 44.5499 196.985 42.2421L195.251 41.2459ZM191.052 47.1984C189.51 48.9265 187.907 50.3883 186.244 51.5893L187.415 53.2107C189.208 51.9157 190.918 50.3535 192.544 48.5296L191.052 47.1984ZM186.244 51.5893C184.578 52.7928 182.875 53.7349 181.135 54.4218L181.869 56.2822C183.777 55.5291 185.626 54.5032 187.415 53.2107L186.244 51.5893ZM181.148 54.4167C179.474 55.0502 177.842 55.36 176.246 55.36V57.36C178.106 57.36 179.978 56.9978 181.856 56.2873L181.148 54.4167ZM176.246 55.36C175.082 55.36 174.156 55.2025 173.44 54.924L172.715 56.788C173.727 57.1815 174.914 57.36 176.246 57.36V55.36ZM173.459 54.9313C172.761 54.6439 172.216 54.2669 171.799 53.8123L170.325 55.1637C170.964 55.8611 171.763 56.3961 172.697 56.7807L173.459 54.9313ZM171.83 53.8478C171.452 53.3939 171.182 52.8598 171.024 52.2295L169.084 52.7145C169.31 53.6202 169.712 54.4301 170.294 55.1282L171.83 53.8478ZM171.027 52.243C170.854 51.5083 170.766 50.7216 170.766 49.88H168.766C168.766 50.8624 168.869 51.8037 169.081 52.701L171.027 52.243ZM170.766 49.88V32.168H168.766V49.88H170.766ZM170.766 32.168C170.766 29.5474 171.047 27.3184 171.59 25.4649L169.67 24.9031C169.061 26.9856 168.766 29.4126 168.766 32.168H170.766ZM171.591 25.4587C172.128 23.5823 172.986 22.0826 174.145 20.9231L172.731 19.5089C171.298 20.9414 170.284 22.7537 169.668 24.9093L171.591 25.4587ZM174.145 20.9231C175.306 19.7626 176.833 18.8779 178.767 18.2932L178.189 16.3788C175.995 17.042 174.162 18.0774 172.731 19.5089L174.145 20.9231ZM178.761 18.295C180.755 17.7058 183.199 17.4 186.11 17.4V15.4C183.069 15.4 180.424 15.7182 178.195 16.377L178.761 18.295ZM186.11 17.4C188.072 17.4 189.422 17.7686 190.291 18.3729L191.433 16.7311C190.094 15.7994 188.276 15.4 186.11 15.4V17.4ZM190.291 18.3729C191.036 18.8914 191.518 19.8159 191.518 21.44H193.518C193.518 19.4161 192.896 17.7486 191.433 16.7311L190.291 18.3729ZM191.518 21.44V22.16H193.518V21.44H191.518ZM192.518 21.16H186.11V23.16H192.518V21.16ZM186.11 21.16C184.331 21.16 182.763 21.3079 181.421 21.6176L181.871 23.5664C183.025 23.3001 184.433 23.16 186.11 23.16V21.16ZM181.45 21.6114C180.084 21.8846 178.901 22.4678 177.937 23.3758L179.307 24.8322C179.975 24.2042 180.808 23.7794 181.842 23.5726L181.45 21.6114ZM177.96 23.3542C176.973 24.2254 176.288 25.4113 175.863 26.8439L177.781 27.4121C178.124 26.2527 178.639 25.4226 179.284 24.8538L177.96 23.3542ZM175.863 26.8439C175.441 28.2671 175.246 30.0528 175.246 32.168H177.246C177.246 30.1552 177.434 28.5809 177.781 27.4121L175.863 26.8439ZM175.246 32.168V50.6H177.246V32.168H175.246ZM232.287 22.88V21.88H231.287V22.88H232.287ZM232.287 50.96H231.287V51.96H232.287V50.96ZM257.487 50.96H258.487V49.96H257.487V50.96ZM257.055 53.552L257.963 53.9711L257.968 53.9586L257.974 53.9459L257.055 53.552ZM255.903 55.064L256.476 55.8832L256.502 55.8649L256.527 55.8449L255.903 55.064ZM254.247 55.784L254.022 54.8096L254.013 54.8117L254.004 54.8139L254.247 55.784ZM228.543 55.856L228.28 56.8208L228.321 56.8321L228.364 56.8399L228.543 55.856ZM227.103 55.208L226.444 55.9606L226.493 56.0037L226.548 56.0401L227.103 55.208ZM226.095 53.912L225.172 54.2966L225.192 54.3449L225.217 54.3909L226.095 53.912ZM225.735 22.88H226.735V21.88H225.735V22.88ZM216.375 22.88H215.375V23.88H216.375V22.88ZM225.735 17.12V18.12H226.735V17.12H225.735ZM226.167 6.032L226.874 6.73911L226.874 6.7391L226.167 6.032ZM231.783 6.032L231.076 6.7391L231.076 6.73911L231.783 6.032ZM232.287 7.04H233.287V6.97774L233.279 6.91596L232.287 7.04ZM232.287 17.12H231.287V18.12H232.287V17.12ZM244.527 17.12H245.527V16.12H244.527V17.12ZM231.287 22.88V50.96H233.287V22.88H231.287ZM232.287 51.96H257.487V49.96H232.287V51.96ZM256.487 50.96C256.487 51.9359 256.352 52.653 256.136 53.1581L257.974 53.9459C258.333 53.107 258.487 52.0961 258.487 50.96H256.487ZM256.147 53.1329C255.916 53.6328 255.623 54.0071 255.278 54.2831L256.527 55.8449C257.142 55.3529 257.617 54.7192 257.963 53.9711L256.147 53.1329ZM255.329 54.2448C254.964 54.5006 254.532 54.6918 254.022 54.8096L254.472 56.7584C255.209 56.5882 255.882 56.2994 256.476 55.8832L255.329 54.2448ZM254.004 54.8139C253.511 54.937 252.993 55 252.447 55V57C253.148 57 253.83 56.919 254.489 56.7541L254.004 54.8139ZM252.447 55H230.127V57H252.447V55ZM230.127 55C229.66 55 229.192 54.9576 228.722 54.8721L228.364 56.8399C228.95 56.9464 229.538 57 230.127 57V55ZM228.806 54.8912C228.376 54.774 227.995 54.6012 227.657 54.3759L226.548 56.0401C227.074 56.3908 227.654 56.65 228.28 56.8208L228.806 54.8912ZM227.761 54.4554C227.48 54.2095 227.214 53.8758 226.973 53.4331L225.217 54.3909C225.551 55.0042 225.957 55.5345 226.444 55.9606L227.761 54.4554ZM227.018 53.5274C226.846 53.1159 226.735 52.5157 226.735 51.68H224.735C224.735 52.6683 224.863 53.5561 225.172 54.2966L227.018 53.5274ZM226.735 51.68V22.88H224.735V51.68H226.735ZM225.735 21.88H216.375V23.88H225.735V21.88ZM217.375 22.88C217.375 20.9023 217.871 19.7795 218.592 19.19L217.325 17.642C215.934 18.7805 215.375 20.6337 215.375 22.88H217.375ZM218.592 19.19C219.487 18.4576 220.42 18.12 221.415 18.12V16.12C219.914 16.12 218.542 16.6464 217.325 17.642L218.592 19.19ZM221.415 18.12H225.735V16.12H221.415V18.12ZM226.735 17.12V7.04H224.735V17.12H226.735ZM226.735 7.04C226.735 6.93855 226.761 6.85219 226.874 6.73911L225.46 5.32489C224.997 5.7878 224.735 6.37345 224.735 7.04H226.735ZM226.874 6.7391C226.987 6.62601 227.073 6.6 227.175 6.6V4.6C226.508 4.6 225.922 4.86198 225.46 5.3249L226.874 6.7391ZM227.175 6.6H230.775V4.6H227.175V6.6ZM230.775 6.6C230.876 6.6 230.962 6.62601 231.076 6.7391L232.49 5.32489C232.027 4.86198 231.441 4.6 230.775 4.6V6.6ZM231.076 6.73911C231.215 6.87872 231.276 7.0128 231.294 7.16404L233.279 6.91596C233.202 6.29919 232.926 5.76128 232.49 5.32489L231.076 6.73911ZM231.287 7.04V17.12H233.287V7.04H231.287ZM232.287 18.12H244.527V16.12H232.287V18.12ZM243.527 17.12C243.527 19.0977 243.03 20.2205 242.309 20.81L243.576 22.358C244.967 21.2195 245.527 19.3663 245.527 17.12H243.527ZM242.309 20.81C241.414 21.5424 240.482 21.88 239.487 21.88V23.88C240.988 23.88 242.359 23.3536 243.576 22.358L242.309 20.81ZM239.487 21.88H232.287V23.88H239.487V21.88ZM287.108 50.96H288.108V49.96H287.108V50.96ZM286.676 53.552L287.584 53.9711L287.59 53.9586L287.595 53.9459L286.676 53.552ZM285.524 55.064L286.097 55.8832L286.124 55.8649L286.149 55.8449L285.524 55.064ZM283.868 55.784L283.643 54.8096L283.634 54.8117L283.625 54.8139L283.868 55.784ZM260.324 55.856L260.061 56.8208L260.103 56.8321L260.145 56.8399L260.324 55.856ZM258.884 55.208L258.225 55.9606L258.275 56.0037L258.329 56.0401L258.884 55.208ZM257.876 53.912L256.953 54.2966L256.973 54.3449L256.998 54.3909L257.876 53.912ZM257.948 17.552L257.241 16.8449L257.241 16.8449L257.948 17.552ZM263.492 17.552L264.199 16.8449L264.199 16.8449L263.492 17.552ZM263.996 18.56H264.996V18.4977L264.988 18.436L263.996 18.56ZM263.996 50.96H262.996V51.96H263.996V50.96ZM257.228 2.216L258.06 2.7707L258.067 2.76043L258.073 2.74999L257.228 2.216ZM264.284 2.216L263.459 2.78068L263.466 2.79118L263.473 2.80149L264.284 2.216ZM264.284 8.48L265.078 9.08745L265.087 9.07658L265.095 9.06549L264.284 8.48ZM257.228 8.48L256.396 9.0347L256.403 9.04579L256.411 9.05668L257.228 8.48ZM286.108 50.96C286.108 51.9359 285.973 52.653 285.757 53.1581L287.595 53.9459C287.955 53.107 288.108 52.0961 288.108 50.96H286.108ZM285.768 53.1329C285.537 53.6328 285.244 54.0071 284.899 54.2831L286.149 55.8449C286.764 55.3529 287.239 54.7192 287.584 53.9711L285.768 53.1329ZM284.95 54.2448C284.585 54.5006 284.154 54.6918 283.643 54.8096L284.093 56.7584C284.83 56.5882 285.503 56.2994 286.097 55.8832L284.95 54.2448ZM283.625 54.8139C283.133 54.937 282.614 55 282.068 55V57C282.77 57 283.451 56.919 284.11 56.7541L283.625 54.8139ZM282.068 55H261.908V57H282.068V55ZM261.908 55C261.441 55 260.973 54.9576 260.503 54.8721L260.145 56.8399C260.731 56.9464 261.319 57 261.908 57V55ZM260.587 54.8912C260.157 54.774 259.776 54.6012 259.439 54.3759L258.329 56.0401C258.855 56.3908 259.435 56.65 260.061 56.8208L260.587 54.8912ZM259.542 54.4554C259.261 54.2095 258.995 53.8758 258.754 53.4331L256.998 54.3909C257.333 55.0042 257.738 55.5345 258.225 55.9606L259.542 54.4554ZM258.799 53.5274C258.628 53.1159 258.516 52.5157 258.516 51.68H256.516C256.516 52.6683 256.644 53.5561 256.953 54.2966L258.799 53.5274ZM258.516 51.68V18.56H256.516V51.68H258.516ZM258.516 18.56C258.516 18.4586 258.542 18.3722 258.655 18.2591L257.241 16.8449C256.778 17.3078 256.516 17.8934 256.516 18.56H258.516ZM258.655 18.2591C258.768 18.146 258.854 18.12 258.956 18.12V16.12C258.289 16.12 257.704 16.382 257.241 16.8449L258.655 18.2591ZM258.956 18.12H262.484V16.12H258.956V18.12ZM262.484 18.12C262.585 18.12 262.672 18.146 262.785 18.2591L264.199 16.8449C263.736 16.382 263.15 16.12 262.484 16.12V18.12ZM262.785 18.2591C262.924 18.3987 262.985 18.5328 263.004 18.684L264.988 18.436C264.911 17.8192 264.635 17.2813 264.199 16.8449L262.785 18.2591ZM262.996 18.56V50.96H264.996V18.56H262.996ZM263.996 51.96H287.108V49.96H263.996V51.96ZM257.364 5.312C257.364 4.27788 257.61 3.44601 258.06 2.7707L256.396 1.6613C255.694 2.71398 255.364 3.94612 255.364 5.312H257.364ZM258.073 2.74999C258.371 2.27896 259.095 1.848 260.756 1.848V-0.152002C258.865 -0.152002 257.237 0.329032 256.382 1.682L258.073 2.74999ZM260.756 1.848C262.347 1.848 263.108 2.26873 263.459 2.78068L265.109 1.65131C264.212 0.339262 262.621 -0.152002 260.756 -0.152002V1.848ZM263.473 2.80149C263.959 3.47396 264.22 4.29458 264.22 5.312H266.22C266.22 3.92942 265.857 2.68603 265.095 1.63051L263.473 2.80149ZM264.22 5.312C264.22 6.38687 263.954 7.2287 263.473 7.89451L265.095 9.06549C265.862 8.00329 266.22 6.73313 266.22 5.312H264.22ZM263.49 7.87255C263.153 8.31246 262.381 8.704 260.756 8.704V10.704C262.586 10.704 264.167 10.2795 265.078 9.08745L263.49 7.87255ZM260.756 8.704C259.059 8.704 258.326 8.30221 258.045 7.90332L256.411 9.05668C257.281 10.2898 258.901 10.704 260.756 10.704V8.704ZM258.06 7.9253C257.614 7.25625 257.364 6.403 257.364 5.312H255.364C255.364 6.717 255.69 7.97574 256.396 9.0347L258.06 7.9253ZM286.974 54.488L286.217 55.1416L286.233 55.16L286.249 55.1777L286.974 54.488ZM285.966 45.704L284.993 45.4706L284.989 45.4892L284.985 45.5079L285.966 45.704ZM287.118 42.248L288.035 42.6467L288.118 42.456V42.248H287.118ZM287.55 1.712L288.257 2.41911L288.257 2.4191L287.55 1.712ZM293.166 1.712L292.458 2.4191L292.458 2.41911L293.166 1.712ZM293.598 29.936H292.598V33.7951L294.472 30.4216L293.598 29.936ZM297.702 24.032L296.945 23.3778L296.945 23.3778L297.702 24.032ZM302.454 19.568L303.046 20.3737L303.05 20.3707L302.454 19.568ZM307.566 16.688L307.212 15.7527L307.203 15.756L307.566 16.688ZM315.846 16.184L315.465 17.1087L315.474 17.1124L315.483 17.116L315.846 16.184ZM317.862 17.552L317.093 18.1922L317.108 18.2103L317.124 18.2277L317.862 17.552ZM318.942 19.64L317.968 19.8691L317.971 19.8825L318.942 19.64ZM316.926 36.632L316.04 36.1674L316.04 36.1674L316.926 36.632ZM309.222 42.32L308.988 41.3476L307.629 41.6739L308.377 42.8551L309.222 42.32ZM314.694 50.96L313.849 51.4951L314.143 51.96H314.694V50.96ZM335.358 50.96H336.358V49.96H335.358V50.96ZM334.926 53.552L335.833 53.9711L335.839 53.9586L335.845 53.9459L334.926 53.552ZM333.774 55.064L334.347 55.8832L334.373 55.8649L334.398 55.8449L333.774 55.064ZM332.118 55.784L331.893 54.8096L331.884 54.8117L331.875 54.8139L332.118 55.784ZM311.453 55.784L311.179 56.7455L311.211 56.7548L311.244 56.7618L311.453 55.784ZM309.87 54.56L309.013 55.0761L309.018 55.0841L309.87 54.56ZM302.886 42.968L303.742 42.4519L303.45 41.968H302.886V42.968ZM298.494 42.176L297.972 43.0293L297.972 43.0293L298.494 42.176ZM297.198 37.928V36.928H296.198V37.928H297.198ZM307.278 37.352L306.983 36.3962L306.973 36.3996L307.278 37.352ZM310.374 35.192L309.582 34.5806L309.582 34.5806L310.374 35.192ZM312.174 30.8L313.153 31.0009L313.153 31.0009L312.174 30.8ZM312.75 21.44H313.75V20.44H312.75V21.44ZM306.846 23.168L307.293 24.0624L307.3 24.0586L307.308 24.0546L306.846 23.168ZM300.582 28.424L301.348 29.0658L301.355 29.0581L300.582 28.424ZM295.614 37.424L296.55 37.7738L296.552 37.7697L295.614 37.424ZM293.598 56V57H294.598V56H293.598ZM291.438 55C289.571 55 288.398 54.5335 287.698 53.7983L286.249 55.1777C287.469 56.4585 289.272 57 291.438 57V55ZM287.73 53.8344C287.049 53.046 286.606 51.6573 286.606 49.448H284.606C284.606 51.8467 285.074 53.818 286.217 55.1416L287.73 53.8344ZM286.606 49.448C286.606 48.214 286.72 47.0319 286.946 45.9001L284.985 45.5079C284.731 46.7761 284.606 48.09 284.606 49.448H286.606ZM286.938 45.9374C287.213 44.7926 287.578 43.696 288.035 42.6467L286.2 41.8493C285.697 43.008 285.294 44.2154 284.993 45.4706L286.938 45.9374ZM288.118 42.248V2.72H286.118V42.248H288.118ZM288.118 2.72C288.118 2.61855 288.144 2.53219 288.257 2.41911L286.842 1.00489C286.379 1.4678 286.118 2.05345 286.118 2.72H288.118ZM288.257 2.4191C288.37 2.30601 288.456 2.28 288.558 2.28V0.279996C287.891 0.279996 287.305 0.541981 286.842 1.0049L288.257 2.4191ZM288.558 2.28H292.158V0.279996H288.558V2.28ZM292.158 2.28C292.259 2.28 292.345 2.30601 292.458 2.4191L293.873 1.00489C293.41 0.541982 292.824 0.279996 292.158 0.279996V2.28ZM292.458 2.41911C292.571 2.53219 292.598 2.61855 292.598 2.72H294.598C294.598 2.05345 294.336 1.4678 293.873 1.00489L292.458 2.41911ZM292.598 2.72V29.936H294.598V2.72H292.598ZM294.472 30.4216C295.64 28.3186 296.969 26.4075 298.458 24.6861L296.945 23.3778C295.362 25.2085 293.955 27.2334 292.723 29.4504L294.472 30.4216ZM298.458 24.6861C299.953 22.9579 301.483 21.5231 303.046 20.3736L301.861 18.7623C300.16 20.0129 298.522 21.5541 296.945 23.3778L298.458 24.6861ZM303.05 20.3707C304.667 19.1694 306.293 18.2557 307.928 17.62L307.203 15.756C305.382 16.4643 303.6 17.4706 301.857 18.7653L303.05 20.3707ZM307.919 17.6233C309.597 16.9885 311.205 16.68 312.75 16.68V14.68C310.934 14.68 309.086 15.0435 307.212 15.7527L307.919 17.6233ZM312.75 16.68C313.917 16.68 314.809 16.8385 315.465 17.1087L316.226 15.2593C315.25 14.8575 314.078 14.68 312.75 14.68V16.68ZM315.483 17.116C316.226 17.405 316.744 17.7736 317.093 18.1922L318.63 16.9118C318.019 16.1784 317.193 15.635 316.208 15.252L315.483 17.116ZM317.124 18.2277C317.528 18.6684 317.812 19.2072 317.968 19.869L319.915 19.411C319.687 18.4408 319.251 17.5876 318.599 16.8763L317.124 18.2277ZM317.971 19.8825C318.141 20.5603 318.23 21.3177 318.23 22.16H320.23C320.23 21.1783 320.126 20.2557 319.912 19.3975L317.971 19.8825ZM318.23 22.16V23.528H320.23V22.16H318.23ZM318.23 23.528C318.23 29.2795 317.464 33.4536 316.04 36.1674L317.811 37.0965C319.459 33.9544 320.23 29.3925 320.23 23.528H318.23ZM316.04 36.1674C314.655 38.8078 312.345 40.5419 308.988 41.3476L309.455 43.2924C313.298 42.3701 316.124 40.3122 317.811 37.0965L316.04 36.1674ZM308.377 42.8551L313.849 51.4951L315.538 50.4249L310.066 41.7849L308.377 42.8551ZM314.694 51.96H335.358V49.96H314.694V51.96ZM334.358 50.96C334.358 51.9359 334.223 52.653 334.006 53.1581L335.845 53.9459C336.204 53.107 336.358 52.0961 336.358 50.96H334.358ZM334.018 53.1329C333.787 53.6328 333.494 54.0071 333.149 54.2831L334.398 55.8449C335.013 55.3529 335.488 54.7192 335.833 53.9711L334.018 53.1329ZM333.2 54.2448C332.835 54.5006 332.403 54.6918 331.893 54.8096L332.342 56.7584C333.08 56.5882 333.752 56.2994 334.347 55.8832L333.2 54.2448ZM331.875 54.8139C331.382 54.937 330.864 55 330.318 55V57C331.019 57 331.701 56.919 332.36 56.7541L331.875 54.8139ZM330.318 55H313.47V57H330.318V55ZM313.47 55C312.87 55 312.268 54.9358 311.663 54.8062L311.244 56.7618C311.983 56.9202 312.725 57 313.47 57V55ZM311.728 54.8225C311.309 54.7027 310.981 54.4585 310.721 54.0359L309.018 55.0841C309.526 55.9095 310.254 56.4813 311.179 56.7455L311.728 54.8225ZM310.726 54.0439L303.742 42.4519L302.029 43.4841L309.013 55.0761L310.726 54.0439ZM302.886 41.968C300.85 41.968 299.628 41.6974 299.015 41.3227L297.972 43.0293C299.087 43.7106 300.793 43.968 302.886 43.968V41.968ZM299.015 41.3227C298.625 41.0847 298.198 40.4002 298.198 38.648H296.198C296.198 40.5438 296.634 42.2113 297.972 43.0293L299.015 41.3227ZM298.198 38.648V37.928H296.198V38.648H298.198ZM297.198 38.928H302.886V36.928H297.198V38.928ZM302.886 38.928C304.681 38.928 306.255 38.7292 307.582 38.3044L306.973 36.3996C305.9 36.7428 304.546 36.928 302.886 36.928V38.928ZM307.572 38.3078C309.021 37.8617 310.226 37.0189 311.165 35.8034L309.582 34.5806C308.889 35.4771 308.03 36.0743 306.983 36.3962L307.572 38.3078ZM311.165 35.8034C312.105 34.5862 312.751 32.9623 313.153 31.0009L311.194 30.5991C310.828 32.3817 310.274 33.6858 309.582 34.5806L311.165 35.8034ZM313.153 31.0009C313.556 29.0369 313.75 26.5386 313.75 23.528H311.75C311.75 26.4694 311.559 28.819 311.194 30.5991L313.153 31.0009ZM313.75 23.528V21.44H311.75V23.528H313.75ZM312.75 20.44C310.805 20.44 308.675 21.0856 306.383 22.2814L307.308 24.0546C309.432 22.9464 311.238 22.44 312.75 22.44V20.44ZM306.398 22.2736C304.037 23.4544 301.843 25.3083 299.808 27.7899L301.355 29.0581C303.256 26.7397 305.238 25.0896 307.293 24.0624L306.398 22.2736ZM299.815 27.7823C297.756 30.2424 296.049 33.3501 294.675 37.0783L296.552 37.7697C297.866 34.2019 299.471 31.3096 301.348 29.0657L299.815 27.7823ZM294.677 37.0742C293.28 40.8149 292.598 45.2598 292.598 50.384H294.598C294.598 45.4282 295.259 41.2331 296.55 37.7738L294.677 37.0742ZM292.598 50.384V56H294.598V50.384H292.598ZM293.598 55H291.438V57H293.598V55ZM341.832 50.6H340.832V51.6H341.832V50.6ZM345.648 49.88L345.974 50.8254L345.983 50.8222L345.992 50.8189L345.648 49.88ZM349.968 47.576L350.541 48.3952L350.547 48.3915L349.968 47.576ZM354.288 43.688L353.548 43.0153L353.547 43.0165L354.288 43.688ZM358.032 38.144L357.141 37.6889L357.137 37.6968L358.032 38.144ZM360.696 30.8L361.667 31.0385L361.667 31.0385L360.696 30.8ZM361.704 17.12V16.12H360.704V17.12H361.704ZM369.264 27.416L368.291 27.1826L368.291 27.1826L369.264 27.416ZM368.184 30.872L367.253 30.5076L367.184 30.6833V30.872H368.184ZM368.184 50.96H367.184V51.96H368.184V50.96ZM391.296 50.96H392.296V49.96H391.296V50.96ZM390.864 53.552L391.772 53.9711L391.778 53.9586L391.783 53.9459L390.864 53.552ZM389.712 55.064L390.285 55.8832L390.312 55.8649L390.337 55.8449L389.712 55.064ZM388.056 55.784L387.831 54.8096L387.822 54.8117L387.813 54.8139L388.056 55.784ZM364.512 55.856L364.249 56.8208L364.29 56.8321L364.333 56.8399L364.512 55.856ZM363.072 55.208L362.413 55.9606L362.463 56.0037L362.517 56.0401L363.072 55.208ZM362.064 53.912L361.141 54.2966L361.161 54.3449L361.186 54.3909L362.064 53.912ZM361.704 41.744H362.704V37.9957L360.837 41.2459L361.704 41.744ZM357.384 47.864L358.13 48.5297L358.139 48.5197L357.384 47.864ZM352.416 52.4L351.83 51.5893L351.83 51.5893L352.416 52.4ZM347.088 55.352L347.442 56.2873L347.448 56.2848L347.455 56.2822L347.088 55.352ZM338.664 55.856L338.283 56.7807L338.292 56.7844L338.301 56.788L338.664 55.856ZM336.648 54.488L335.88 55.1282L335.895 55.1463L335.911 55.1637L336.648 54.488ZM335.64 52.472L334.666 52.7011L334.67 52.7145L335.64 52.472ZM336.216 25.184L337.176 25.4649L337.177 25.4587L336.216 25.184ZM339.024 20.216L339.731 20.9231L339.731 20.9231L339.024 20.216ZM344.064 17.336L343.781 16.377L343.774 16.3788L344.064 17.336ZM356.448 17.552L357.019 16.7311L357.019 16.7311L356.448 17.552ZM358.104 22.16V23.16H359.104V22.16H358.104ZM347.232 22.592L347.428 23.5726L347.442 23.5697L347.457 23.5664L347.232 22.592ZM344.208 24.104L344.869 24.8538L344.882 24.8432L344.893 24.8322L344.208 24.104ZM342.408 27.128L343.367 27.4121L343.367 27.4121L342.408 27.128ZM341.832 51.6C343.121 51.6 344.505 51.332 345.974 50.8254L345.322 48.9346C344.007 49.388 342.847 49.6 341.832 49.6V51.6ZM345.992 50.8189C347.524 50.2571 349.041 49.4458 350.541 48.3952L349.394 46.7568C348.015 47.7222 346.652 48.4469 345.304 48.9411L345.992 50.8189ZM350.547 48.3915C352.101 47.2883 353.595 45.9421 355.029 44.3595L353.547 43.0165C352.197 44.5059 350.811 45.7517 349.389 46.7605L350.547 48.3915ZM355.028 44.3607C356.535 42.7024 357.834 40.7767 358.926 38.5912L357.137 37.6968C356.118 39.7353 354.92 41.5056 353.548 43.0153L355.028 44.3607ZM358.922 38.5991C360.067 36.3603 360.979 33.8378 361.667 31.0385L359.725 30.5615C359.068 33.2341 358.205 35.6077 357.141 37.6889L358.922 38.5991ZM361.667 31.0385C362.361 28.2112 362.704 25.0815 362.704 21.656H360.704C360.704 24.9505 360.374 27.9168 359.725 30.5615L361.667 31.0385ZM362.704 21.656V17.12H360.704V21.656H362.704ZM361.704 18.12H364.296V16.12H361.704V18.12ZM364.296 18.12C365.885 18.12 366.914 18.5928 367.574 19.394C368.265 20.2322 368.696 21.6002 368.696 23.672H370.696C370.696 21.3758 370.227 19.4678 369.118 18.122C367.978 16.7392 366.306 16.12 364.296 16.12V18.12ZM368.696 23.672C368.696 24.8933 368.56 26.0628 368.291 27.1826L370.236 27.6494C370.544 26.3692 370.696 25.0427 370.696 23.672H368.696ZM368.291 27.1826C368.014 28.3399 367.667 29.448 367.253 30.5076L369.115 31.2364C369.564 30.088 369.938 28.8921 370.236 27.6494L368.291 27.1826ZM367.184 30.872V50.96H369.184V30.872H367.184ZM368.184 51.96H391.296V49.96H368.184V51.96ZM390.296 50.96C390.296 51.9359 390.161 52.653 389.945 53.1581L391.783 53.9459C392.143 53.107 392.296 52.0961 392.296 50.96H390.296ZM389.956 53.1329C389.725 53.6328 389.432 54.0071 389.087 54.2831L390.337 55.8449C390.951 55.3529 391.427 54.7192 391.772 53.9711L389.956 53.1329ZM389.138 54.2448C388.773 54.5006 388.342 54.6918 387.831 54.8096L388.281 56.7584C389.018 56.5882 389.691 56.2994 390.285 55.8832L389.138 54.2448ZM387.813 54.8139C387.321 54.937 386.802 55 386.256 55V57C386.957 57 387.639 56.919 388.298 56.7541L387.813 54.8139ZM386.256 55H366.096V57H386.256V55ZM366.096 55C365.629 55 365.161 54.9576 364.691 54.8721L364.333 56.8399C364.919 56.9464 365.507 57 366.096 57V55ZM364.775 54.8912C364.345 54.774 363.964 54.6012 363.627 54.3759L362.517 56.0401C363.043 56.3908 363.623 56.65 364.249 56.8208L364.775 54.8912ZM363.73 54.4554C363.449 54.2095 363.183 53.8758 362.942 53.4331L361.186 54.3909C361.521 55.0042 361.926 55.5345 362.413 55.9606L363.73 54.4554ZM362.987 53.5274C362.815 53.1159 362.704 52.5157 362.704 51.68H360.704C360.704 52.6683 360.832 53.5561 361.141 54.2966L362.987 53.5274ZM362.704 51.68V41.744H360.704V51.68H362.704ZM360.837 41.2459C359.571 43.4501 358.167 45.4367 356.629 47.2083L358.139 48.5197C359.768 46.6433 361.245 44.5499 362.571 42.2421L360.837 41.2459ZM356.638 47.1984C355.096 48.9265 353.493 50.3883 351.83 51.5893L353.001 53.2107C354.794 51.9157 356.503 50.3535 358.13 48.5296L356.638 47.1984ZM351.83 51.5893C350.164 52.7928 348.461 53.7349 346.721 54.4218L347.455 56.2822C349.363 55.5291 351.212 54.5032 353.001 53.2107L351.83 51.5893ZM346.734 54.4167C345.06 55.0502 343.428 55.36 341.832 55.36V57.36C343.692 57.36 345.564 56.9978 347.442 56.2873L346.734 54.4167ZM341.832 55.36C340.668 55.36 339.742 55.2025 339.026 54.924L338.301 56.788C339.313 57.1815 340.5 57.36 341.832 57.36V55.36ZM339.045 54.9313C338.347 54.6439 337.802 54.2669 337.385 53.8123L335.911 55.1637C336.55 55.8611 337.349 56.3961 338.283 56.7807L339.045 54.9313ZM337.416 53.8478C337.038 53.3939 336.768 52.8598 336.61 52.2295L334.67 52.7145C334.896 53.6202 335.298 54.4301 335.88 55.1282L337.416 53.8478ZM336.613 52.243C336.44 51.5083 336.352 50.7216 336.352 49.88H334.352C334.352 50.8624 334.455 51.8037 334.666 52.701L336.613 52.243ZM336.352 49.88V32.168H334.352V49.88H336.352ZM336.352 32.168C336.352 29.5474 336.633 27.3184 337.176 25.4649L335.256 24.9031C334.647 26.9856 334.352 29.4126 334.352 32.168H336.352ZM337.177 25.4587C337.714 23.5823 338.572 22.0826 339.731 20.9231L338.317 19.5089C336.884 20.9414 335.87 22.7537 335.254 24.9093L337.177 25.4587ZM339.731 20.9231C340.891 19.7626 342.419 18.8779 344.353 18.2932L343.774 16.3788C341.581 17.042 339.748 18.0774 338.317 19.5089L339.731 20.9231ZM344.347 18.295C346.341 17.7058 348.785 17.4 351.696 17.4V15.4C348.655 15.4 346.01 15.7182 343.781 16.377L344.347 18.295ZM351.696 17.4C353.658 17.4 355.008 17.7686 355.877 18.3729L357.019 16.7311C355.68 15.7994 353.862 15.4 351.696 15.4V17.4ZM355.877 18.3729C356.622 18.8914 357.104 19.8159 357.104 21.44H359.104C359.104 19.4161 358.482 17.7486 357.019 16.7311L355.877 18.3729ZM357.104 21.44V22.16H359.104V21.44H357.104ZM358.104 21.16H351.696V23.16H358.104V21.16ZM351.696 21.16C349.917 21.16 348.349 21.3079 347.007 21.6176L347.457 23.5664C348.611 23.3001 350.019 23.16 351.696 23.16V21.16ZM347.036 21.6114C345.67 21.8846 344.487 22.4678 343.523 23.3758L344.893 24.8322C345.561 24.2042 346.394 23.7794 347.428 23.5726L347.036 21.6114ZM343.546 23.3542C342.559 24.2254 341.874 25.4113 341.449 26.8439L343.367 27.4121C343.71 26.2527 344.225 25.4226 344.869 24.8538L343.546 23.3542ZM341.449 26.8439C341.027 28.2671 340.832 30.0528 340.832 32.168H342.832C342.832 30.1552 343.02 28.5809 343.367 27.4121L341.449 26.8439ZM340.832 32.168V50.6H342.832V32.168H340.832Z" fill="#2DE1FA"/>
</svg>
